<svg xmlns="http://www.w3.org/2000/svg" viewBox="-20.00 -58.48 49.11 89.03"><line x1="0" y1="0" x2="9.11" y2="0" stroke="red" stroke-width="0.5" stroke-dasharray="2"/><line x1="0" y1="-38.48" x2="9.11" y2="-38.48" stroke="blue" stroke-width="0.3"/><line x1="0" y1="10.55" x2="9.11" y2="10.55" stroke="blue" stroke-width="0.3"/><line x1="9.11" y1="-38.48" x2="9.11" y2="10.55" stroke="green" stroke-width="0.5" stroke-dasharray="2"/><path d="M 0.76 8.65 Q -0.91 8.65, -1.95 8.21 L -1.95 8.21 L -1.95 5.84 Q -0.74 6.19, 0.44 6.19 L 0.44 6.19 Q 1.81 6.19, 2.45 5.44 Q 3.09 4.69, 3.09 3.16 L 3.09 3.16 L 3.09 -19.27 L 6.01 -19.27 L 6.01 2.95 Q 6.01 8.65, 0.76 8.65 Z M 2.85 -24.49 Q 2.85 -25.49, 3.34 -25.95 Q 3.83 -26.42, 4.57 -26.42 L 4.57 -26.42 Q 5.27 -26.42, 5.78 -25.95 Q 6.29 -25.47, 6.29 -24.49 L 6.29 -24.49 Q 6.29 -23.50, 5.78 -23.02 Q 5.27 -22.54, 4.57 -22.54 L 4.57 -22.54 Q 3.83 -22.54, 3.34 -23.02 Q 2.85 -23.50, 2.85 -24.49 Z " fill="gray" fill-opacity="0.3" stroke="black" stroke-width="0.5"/></svg>